<?xml version="1.0" standalone="no"?>
<!DOCTYPE svg PUBLIC "-//W3C//DTD SVG 20010904//EN"
 "http://www.w3.org/TR/2001/REC-SVG-20010904/DTD/svg10.dtd">
<svg version="1.0" xmlns="http://www.w3.org/2000/svg"
 width="512.000000pt" height="512.000000pt" viewBox="0 0 512.000000 512.000000"
 preserveAspectRatio="xMidYMid meet">
<metadata>
Created by potrace 1.14, written by Peter Selinger 2001-2017
</metadata>
<g transform="translate(0.000000,512.000000) scale(0.100000,-0.100000)"
fill="#000000" stroke="none">
<path d="M3960 4809 c-66 -10 -119 -27 -170 -54 -148 -80 -168 -81 -295 -19
-77 38 -83 39 -185 39 -97 0 -110 -2 -171 -31 -167 -79 -255 -260 -215 -442
12 -56 59 -136 110 -187 l55 -55 0 -108 c-1 -171 -31 -301 -111 -474 l-40 -86
-36 46 c-19 26 -42 52 -50 57 -12 10 -12 19 2 65 39 138 37 249 -6 375 -60
175 -193 346 -316 409 -141 71 -292 74 -432 7 -68 -32 -201 -141 -259 -213
-99 -121 -150 -257 -151 -404 l0 -71 -82 -41 c-165 -81 -267 -227 -268 -384 0
-55 -29 -51 -75 12 -121 165 -313 255 -557 259 -116 2 -186 -11 -264 -49 -113
-55 -201 -155 -246 -278 -30 -81 -30 -293 0 -403 42 -155 137 -296 246 -365
l44 -28 -15 -40 c-35 -100 -27 -254 20 -354 44 -96 163 -195 287 -242 55 -21
64 -28 80 -65 41 -96 72 -154 119 -224 l49 -74 -41 -33 c-49 -37 -70 -61 -117
-129 -18 -28 -35 -52 -36 -54 -3 -3 -305 116 -368 145 -16 8 -48 14 -72 14
-87 0 -138 -99 -89 -174 11 -16 52 -39 118 -68 196 -83 200 -76 -42 -74 l-213
1 -29 -33 c-34 -38 -40 -103 -11 -139 36 -46 59 -50 269 -47 154 2 192 1 173
-8 -25 -12 -46 -20 -172 -73 -74 -31 -95 -48 -107 -91 -18 -65 27 -132 93
-138 34 -3 103 16 161 44 11 6 81 34 155 64 133 53 135 54 144 33 6 -12 25
-42 45 -67 98 -128 227 -204 386 -229 82 -12 108 -10 445 44 14 2 77 11 140
20 112 15 175 24 215 31 11 1 40 5 65 9 25 3 56 8 70 10 14 2 45 7 70 10 25 3
56 7 70 10 14 3 43 7 65 10 38 4 89 11 145 20 14 3 90 14 170 25 80 11 154 22
166 24 12 2 45 7 75 11 30 3 61 8 69 10 8 2 39 7 69 10 30 4 61 8 70 10 9 1
39 6 66 9 56 8 98 14 135 21 14 3 45 7 70 10 84 10 105 13 254 34 82 12 159
23 170 26 12 2 41 7 66 10 25 3 59 7 75 10 63 10 92 15 140 20 28 4 66 11 85
17 37 11 100 64 100 83 0 7 12 18 28 26 133 67 302 210 389 329 93 129 167
307 196 476 14 77 15 286 3 349 -26 125 -74 241 -146 354 -29 45 -51 83 -49
84 2 1 26 13 54 27 63 32 136 89 170 134 31 41 27 60 -11 46 -28 -11 -135 -14
-178 -5 -42 9 -81 31 -157 89 -119 90 -250 122 -372 90 -43 -11 -47 -11 -43 4
15 49 37 198 40 272 3 47 5 90 5 96 1 6 22 14 49 18 145 19 291 145 327 283
39 144 -4 291 -118 408 -33 33 -67 77 -76 98 -19 39 -20 112 -2 144 26 51 40
191 27 278 -37 245 -273 421 -516 384z m-441 -772 c7 -19 25 -55 42 -82 32
-51 31 -57 -17 -110 -11 -11 -52 -61 -93 -112 -40 -50 -81 -95 -90 -98 -28
-11 -47 27 -45 86 1 30 3 97 4 149 3 119 4 125 35 128 31 2 97 35 114 56 21
25 39 19 50 -17z m287 -267 c15 -6 43 -13 63 -16 49 -8 65 -22 49 -42 -19 -23
-16 -123 5 -155 10 -15 16 -28 15 -28 -6 -3 -48 -7 -153 -14 -172 -13 -183
-12 -194 18 -5 12 -6 29 -2 38 8 21 176 209 187 209 2 0 15 -5 30 -10z m171
-490 c9 -42 11 -264 4 -335 -1 -18 -2 -19 -12 -3 -15 27 -87 72 -154 98 -51
20 -79 24 -187 24 -71 0 -128 2 -128 3 0 10 90 99 129 127 86 63 154 95 256
121 80 21 81 21 92 -35z m-1379 -1467 c0 -63 16 -191 36 -278 2 -11 9 -42 15
-68 6 -27 23 -76 36 -109 14 -34 23 -63 21 -66 -3 -2 -61 4 -130 13 -110 16
-125 20 -131 39 -10 30 -15 304 -7 353 6 36 17 50 77 101 39 32 73 58 76 56 4
-2 7 -21 7 -41z"/>
</g>
</svg>
